<?xml version="1.0" encoding="iso-8859-1"?>
<!-- Uploaded to: SVG Repo, www.svgrepo.com, Generator: SVG Repo Mixer Tools -->
<svg fill="#000000" height="800px" width="800px" version="1.1" id="Layer_1" xmlns="http://www.w3.org/2000/svg" xmlns:xlink="http://www.w3.org/1999/xlink" 
	 viewBox="0 0 512.002 512.002" xml:space="preserve">
<g>
	<g>
		<path d="M388.647,219.239c-13.127-13.127-34.489-13.128-47.616,0l-12.471,12.471l-24.942-24.942l12.471-12.471
			c13.128-13.128,13.128-34.489,0-47.617c-13.128-13.129-34.49-13.128-47.616,0l-4.456,4.455v-20.081l31.856-31.856
			c3.131-3.131,3.131-8.206,0-11.337L270.632,62.62c6.344-4.565,10.487-12.005,10.487-20.399c0-11.048-7.172-20.446-17.102-23.8
			V8.017C264.017,3.589,260.427,0,256,0c-4.427,0-8.017,3.589-8.017,8.017v10.405c-9.93,3.354-17.102,12.752-17.102,23.8
			c0,8.394,4.143,15.833,10.487,20.398L216.127,87.86c-3.131,3.131-3.131,8.206,0,11.337l31.856,31.856v20.081l-4.454-4.454
			c-13.127-13.128-34.489-13.129-47.616,0c-13.128,13.127-13.128,34.489,0,47.617l12.471,12.471l-24.942,24.942l-12.471-12.471
			c-13.128-13.128-34.49-13.127-47.616,0c-13.128,13.128-13.128,34.489,0,47.617c13.127,13.127,34.489,13.128,47.616,0
			l12.471-12.471l24.942,24.943l-12.471,12.471c-6.36,6.359-9.862,14.815-9.862,23.808c0,8.994,3.502,17.449,9.862,23.809
			c13.128,13.129,34.49,13.128,47.616,0l4.454-4.454v25.508c-9.93,3.354-17.102,12.752-17.102,23.8
			c0,6.452,2.447,12.343,6.459,16.796c-4.387,4.327-7.308,10.154-7.85,16.656l-7.133,85.599c-0.186,2.234,0.572,4.444,2.09,6.094
			s3.658,2.589,5.899,2.589h51.307c2.241,0,4.381-0.938,5.899-2.589c1.518-1.649,2.276-3.86,2.09-6.094l-7.133-85.599
			c-0.542-6.501-3.463-12.329-7.85-16.656c4.013-4.453,6.459-10.344,6.459-16.796c0-11.048-7.172-20.446-17.102-23.8v-25.508
			l4.454,4.454c6.564,6.564,15.186,9.846,23.809,9.846c8.622,0,17.244-3.281,23.807-9.846c6.36-6.359,9.862-14.815,9.862-23.809
			c0-8.994-3.502-17.449-9.862-23.808l-12.471-12.471l24.942-24.943l12.471,12.471c13.127,13.128,34.489,13.127,47.616,0
			C401.775,253.728,401.775,232.367,388.647,219.239z M159.633,255.519c-6.877,6.877-18.065,6.876-24.942,0
			c-6.876-6.876-6.876-18.065,0-24.943c3.439-3.439,7.955-5.157,12.471-5.157c4.516,0,9.032,1.719,12.471,5.157l12.471,12.471
			L159.633,255.519z M279.809,158.018c6.876-6.876,18.064-6.876,24.942,0c6.876,6.876,6.876,18.065,0,24.943l-12.471,12.471
			l-24.943-24.943L279.809,158.018z M256,33.136c5.01,0,9.086,4.076,9.086,9.086c0,5.01-4.075,9.085-9.084,9.086
			c-0.001,0-0.002,0-0.002,0c-5.009-0.001-9.085-4.076-9.085-9.086C246.915,37.211,250.99,33.136,256,33.136z M233.132,93.528
			L256,70.661l22.868,22.867L256,116.395L233.132,93.528z M256,181.826l24.942,24.942L256,231.71l-24.942-24.943L256,181.826z
			 M207.25,182.959c-6.876-6.877-6.876-18.065,0-24.943c3.439-3.439,7.955-5.157,12.471-5.157c4.517,0,9.033,1.719,12.471,5.157
			l12.471,12.471l-24.942,24.942L207.25,182.959z M194.778,243.047l24.942-24.942l24.943,24.942l-24.942,24.942L194.778,243.047z
			 M232.192,328.078c-6.876,6.876-18.064,6.876-24.942,0c-6.876-6.876-6.876-18.065,0-24.943l12.471-12.471l24.942,24.942
			L232.192,328.078z M272.941,495.967h-33.882l6.41-76.917c0.451-5.419,5.065-9.664,10.503-9.664h0.057
			c5.437,0,10.052,4.245,10.503,9.664L272.941,495.967z M265.086,384.267c0,5.01-4.076,9.086-9.086,9.086
			c-5.01,0-9.086-4.076-9.086-9.086c0-5.01,4.076-9.086,9.086-9.086C261.01,375.182,265.086,379.257,265.086,384.267z M256,304.269
			l-24.942-24.942L256,254.386l24.942,24.942L256,304.269z M304.75,303.135c6.876,6.876,6.876,18.065,0,24.943
			c-6.877,6.877-18.065,6.876-24.942,0l-12.471-12.471l24.942-24.942L304.75,303.135z M292.279,267.99l-24.942-24.942l24.943-24.942
			l24.942,24.942L292.279,267.99z M377.31,255.519c-6.876,6.876-18.064,6.876-24.942,0l-12.471-12.471l12.471-12.471
			c6.877-6.876,18.065-6.876,24.942,0C384.186,237.453,384.186,248.642,377.31,255.519z"/>
	</g>
</g>
</svg>